<svg width="168" height="44" viewBox="0 0 168 44" fill="none" xmlns="http://www.w3.org/2000/svg">
<path d="M3.50854 34.1224V9.75463H7.96025V34.1224H3.50854Z" fill="#0A0810"/>
<path d="M27.5661 34.1224V23.4592C27.5661 22.1075 27.2392 21.0875 26.5853 20.3991C25.9313 19.7108 25.0762 19.3666 24.0199 19.3666C23.127 19.3666 22.3348 19.6106 21.6431 20.0987C20.964 20.5868 20.4296 21.3253 20.0397 22.314C19.6499 23.2902 19.455 24.5105 19.455 25.9748H17.9837C17.9837 23.6094 18.2792 21.6444 18.8702 20.08C19.4613 18.503 20.2975 17.3265 21.379 16.5506C22.4605 15.7746 23.7306 15.3866 25.1894 15.3866C26.6984 15.3866 27.956 15.7246 28.962 16.4004C29.9806 17.0637 30.7414 18.0024 31.2445 19.2164C31.7601 20.4304 32.0179 21.8447 32.0179 23.4592V34.1224H27.5661ZM15.0033 34.1224V15.9123H18.8891L19.455 19.5168V34.1224H15.0033Z" fill="#0A0810"/>
<path d="M45.337 34.6481C43.8405 34.6481 42.4384 34.2663 41.1305 33.5029C39.8353 32.7395 38.7852 31.6381 37.9804 30.1988C37.1755 28.7595 36.7731 27.0261 36.7731 24.9986C36.7731 22.9836 37.1693 21.2627 37.9615 19.8359C38.7538 18.3966 39.785 17.2953 41.0551 16.5318C42.3252 15.7684 43.6771 15.3866 45.1106 15.3866C46.2927 15.3866 47.3805 15.6807 48.374 16.269C49.3674 16.8572 50.166 17.7646 50.7696 18.9911C51.3732 20.2051 51.675 21.7696 51.675 23.6844H50.0151C50.0151 22.7708 49.8264 21.9948 49.4492 21.3566C49.0845 20.7057 48.5878 20.2114 47.959 19.8735C47.3428 19.5355 46.6574 19.3666 45.9029 19.3666C45.01 19.3666 44.2115 19.5919 43.5073 20.0424C42.8156 20.493 42.2686 21.1438 41.8662 21.9948C41.4638 22.8334 41.2626 23.8346 41.2626 24.9986C41.2626 26.2752 41.4952 27.3327 41.9605 28.1713C42.4384 28.9973 43.0357 29.6168 43.7525 30.0298C44.4819 30.4303 45.2238 30.6306 45.9784 30.6306C46.67 30.6306 47.3239 30.4804 47.9401 30.18C48.5563 29.8671 49.0531 29.4228 49.4303 28.8471C49.8202 28.2714 50.0151 27.5768 50.0151 26.7633H50.8828C50.8828 28.3152 50.7004 29.6857 50.3357 30.8746C49.9711 32.0511 49.38 32.9772 48.5626 33.6531C47.7578 34.3164 46.6826 34.6481 45.337 34.6481ZM55.7117 43.5466C53.6619 43.0335 52.1969 42.2325 51.3166 41.1436C50.4489 40.0548 50.0151 38.5404 50.0151 36.6005V20.4179L51.5996 15.9123H54.4668V36.9384C54.4668 37.6768 54.5422 38.2526 54.6931 38.6656C54.844 39.0911 55.1018 39.4228 55.4665 39.6606C55.8438 39.8983 56.3531 40.1174 56.9944 40.3176L55.7117 43.5466Z" fill="#0A0810"/>
<path d="M73.7205 15.8372H78.1722V34.1224H73.7205V15.8372ZM61.1576 15.8372H65.6093V27.0261C65.6093 28.2151 65.9048 29.1099 66.4959 29.7107C67.0869 30.2989 67.898 30.593 68.9292 30.593C69.8095 30.593 70.608 30.3678 71.3248 29.9172C72.0542 29.4541 72.6327 28.7783 73.0602 27.8897C73.5004 26.9886 73.7205 25.8747 73.7205 24.548H74.9277C74.9277 26.7758 74.6385 28.6218 74.06 30.0862C73.4815 31.5505 72.683 32.6456 71.6644 33.3715C70.6458 34.0974 69.47 34.4603 68.137 34.4603C66.8291 34.4603 65.647 34.2288 64.5907 33.7657C63.5344 33.3026 62.6981 32.558 62.0819 31.5317C61.4657 30.5054 61.1576 29.1537 61.1576 27.4767V15.8372Z" fill="#0A0810"/>
<path d="M87.7906 12.5706C86.9229 12.5706 86.2438 12.3454 85.7534 11.8948C85.2755 11.4317 85.0366 10.7934 85.0366 9.97991C85.0366 9.19143 85.2755 8.56565 85.7534 8.10258C86.2438 7.62699 86.9229 7.38919 87.7906 7.38919C88.6457 7.38919 89.3185 7.62699 89.809 8.10258C90.2994 8.56565 90.5446 9.19143 90.5446 9.97991C90.5446 10.7934 90.2994 11.4317 89.809 11.8948C89.3185 12.3454 88.6457 12.5706 87.7906 12.5706ZM85.5648 34.1224V15.8372H90.0165V34.1224H85.5648Z" fill="#0A0810"/>
<path d="M104.395 34.6481C102.634 34.6481 101.119 34.4103 99.8489 33.9347C98.5913 33.4466 97.623 32.752 96.944 31.8508C96.2649 30.9372 95.9191 29.8421 95.9065 28.5655H100.019C100.056 29.4666 100.415 30.1237 101.094 30.5367C101.773 30.9497 102.697 31.1562 103.867 31.1562C104.508 31.1562 105.074 31.0624 105.564 30.8746C106.067 30.6869 106.457 30.4303 106.734 30.1049C107.011 29.7795 107.149 29.4166 107.149 29.0161C107.149 28.5029 106.96 28.1024 106.583 27.8146C106.218 27.5142 105.627 27.2389 104.81 26.9886L100.811 25.5618C99.3773 25.0486 98.277 24.3728 97.5099 23.5343C96.7428 22.6957 96.3592 21.6945 96.3592 20.5305C96.3592 18.9911 97.0571 17.7521 98.453 16.8134C99.8615 15.8622 101.741 15.3866 104.093 15.3866C106.432 15.3866 108.237 15.8998 109.507 16.926C110.79 17.9398 111.45 19.2289 111.487 20.7934H107.3C107.237 20.1926 106.948 19.717 106.432 19.3666C105.917 19.0161 105.137 18.8409 104.093 18.8409C103.15 18.8409 102.408 19.0349 101.867 19.4229C101.339 19.7984 101.075 20.2427 101.075 20.7558C101.075 21.6194 101.817 22.2702 103.301 22.7082L107.639 24.3227C109.048 24.7983 110.142 25.4116 110.922 26.1625C111.701 26.9135 112.091 27.8646 112.091 29.0161C112.091 29.9798 111.764 30.8934 111.11 31.757C110.469 32.608 109.57 33.3026 108.413 33.8408C107.256 34.379 105.917 34.6481 104.395 34.6481Z" fill="#0A0810"/>
<path d="M120.064 12.5706C119.197 12.5706 118.518 12.3454 118.027 11.8948C117.549 11.4317 117.31 10.7934 117.31 9.97991C117.31 9.19143 117.549 8.56565 118.027 8.10258C118.518 7.62699 119.197 7.38919 120.064 7.38919C120.919 7.38919 121.592 7.62699 122.083 8.10258C122.573 8.56565 122.818 9.19143 122.818 9.97991C122.818 10.7934 122.573 11.4317 122.083 11.8948C121.592 12.3454 120.919 12.5706 120.064 12.5706ZM117.838 34.1224V15.8372H122.29V34.1224H117.838Z" fill="#0A0810"/>
<path d="M136.782 34.6481C135.248 34.6481 133.82 34.2538 132.5 33.4654C131.192 32.6644 130.129 31.5442 129.312 30.1049C128.507 28.6531 128.105 26.951 128.105 24.9986C128.105 22.9335 128.507 21.1876 129.312 19.7608C130.129 18.3215 131.192 17.2327 132.5 16.4943C133.82 15.7558 135.248 15.3866 136.782 15.3866C137.976 15.3866 139.026 15.5806 139.932 15.9686C140.85 16.3441 141.63 16.8572 142.271 17.508C142.912 18.1463 143.415 18.8597 143.78 19.6482C144.145 20.4367 144.377 21.2314 144.478 22.0324L139.989 22.145C139.787 21.344 139.41 20.6807 138.857 20.1551C138.316 19.6294 137.612 19.3666 136.744 19.3666C136.027 19.3666 135.354 19.5668 134.726 19.9673C134.097 20.3553 133.581 20.9623 133.179 21.7883C132.789 22.6144 132.594 23.6844 132.594 24.9986C132.594 26.2501 132.776 27.2952 133.141 28.1337C133.518 28.9598 134.021 29.5855 134.65 30.0111C135.279 30.4241 135.977 30.6306 136.744 30.6306C137.876 30.6306 138.7 30.3615 139.215 29.8233C139.731 29.2726 139.989 28.5405 139.989 27.6268H144.478C144.478 28.9159 144.182 30.0924 143.591 31.1562C143 32.2201 142.133 33.0711 140.988 33.7094C139.844 34.3352 138.442 34.6481 136.782 34.6481Z" fill="#0A0810"/>
<path d="M157.014 34.6481C155.342 34.6481 153.826 34.2914 152.468 33.578C151.123 32.8646 150.054 31.8008 149.262 30.3865C148.469 28.9598 148.073 27.1763 148.073 25.0361C148.073 22.8584 148.469 21.0562 149.262 19.6294C150.054 18.2026 151.123 17.1388 152.468 16.4379C153.826 15.7371 155.342 15.3866 157.014 15.3866C158.662 15.3866 160.152 15.7371 161.485 16.4379C162.83 17.1388 163.899 18.2026 164.692 19.6294C165.484 21.0562 165.88 22.8584 165.88 25.0361C165.88 27.1763 165.484 28.9598 164.692 30.3865C163.899 31.8008 162.83 32.8646 161.485 33.578C160.152 34.2914 158.662 34.6481 157.014 34.6481ZM156.863 30.7808C157.744 30.7808 158.523 30.568 159.202 30.1425C159.894 29.7044 160.435 29.0599 160.825 28.2088C161.227 27.3578 161.428 26.3002 161.428 25.0361C161.428 23.1087 161.045 21.6569 160.278 20.6807C159.523 19.7045 158.486 19.2164 157.165 19.2164C156.272 19.2164 155.48 19.4354 154.788 19.8735C154.097 20.299 153.55 20.9435 153.147 21.8071C152.757 22.6707 152.563 23.747 152.563 25.0361C152.563 26.9385 152.946 28.3715 153.713 29.3352C154.493 30.2989 155.543 30.7808 156.863 30.7808Z" fill="#0A0810"/>
</svg>
